<?xml version="1.0" encoding="UTF-8"?>
<svg width="180" height="180" viewBox="0 0 180 180" fill="none" xmlns="http://www.w3.org/2000/svg">
<mask id="mask0_408_134" style="mask-type:luminance" maskUnits="userSpaceOnUse" x="0" y="0" width="180" height="180">
<path d="M0 0H180V180H0V0Z" fill="white"/>
</mask>
<g mask="url(#mask0_408_134)">
<path d="M90 180C139.706 180 180 139.706 180 90C180 40.2945 139.706 0 90 0C40.2945 0 0 40.2945 0 90C0 139.706 40.2945 180 90 180Z" fill="black"/>
<path d="M149.949 157.52L69.9375 54H54V126.004H66.4731V69.2969L139.477 162.528C143.143 161.023 146.65 159.243 149.949 157.52Z" fill="url(#paint0_linear_408_134)"/>
<path d="M123.338 54H109.615V126.008H123.338V54Z" fill="url(#paint1_linear_408_134)"/>
</g>
<defs>
<linearGradient id="paint0_linear_408_134" x1="109.506" y1="116.165" x2="144.217" y2="160.54" gradientUnits="userSpaceOnUse">
<stop stop-color="white"/>
<stop offset="1" stop-color="white" stop-opacity="0"/>
</linearGradient>
<linearGradient id="paint1_linear_408_134" x1="116.477" y1="54" x2="116.277" y2="107.855" gradientUnits="userSpaceOnUse">
<stop stop-color="white"/>
<stop offset="1" stop-color="white" stop-opacity="0"/>
</linearGradient>
</defs>
</svg>
